<?xml version="1.0" standalone="no"?>
<!DOCTYPE svg PUBLIC "-//W3C//DTD SVG 20010904//EN"
 "http://www.w3.org/TR/2001/REC-SVG-20010904/DTD/svg10.dtd">
<svg version="1.0" xmlns="http://www.w3.org/2000/svg"
 width="1500.000000pt" height="500.000000pt" viewBox="0 0 1500.000000 500.000000"
 preserveAspectRatio="xMidYMid meet">

<g transform="translate(0.000000,500.000000) scale(0.100000,-0.100000)"
fill="#000000" stroke="none">
<path d="M0 2500 l0 -2500 7500 0 7500 0 0 2500 0 2500 -7500 0 -7500 0 0
-2500z m4575 1355 c188 -33 398 -121 551 -231 83 -60 154 -119 154 -129 0 -6
-116 -65 -130 -65 -5 0 -50 29 -99 65 -317 233 -740 296 -1119 169 l-75 -25
-51 20 c-28 11 -70 25 -93 32 -24 7 -43 15 -43 18 1 8 128 65 214 96 199 71
461 90 691 50z m-1134 -216 c131 -13 239 -37 404 -90 110 -36 146 -43 235 -46
103 -4 159 6 285 51 41 15 -69 -72 -130 -102 -121 -61 -207 -65 -370 -18 -154
44 -360 69 -505 62 -266 -13 -430 -87 -473 -211 -13 -37 -19 -42 -78 -62 -102
-34 -103 -34 -95 40 11 110 75 211 171 272 110 69 208 95 436 114 9 0 63 -4
120 -10z m2529 -118 c0 -5 -17 -12 -37 -16 -67 -12 -225 -76 -358 -144 -147
-75 -361 -215 -586 -383 -330 -245 -455 -328 -611 -403 -151 -72 -247 -98
-368 -99 -92 0 -230 30 -244 53 -3 4 36 11 87 14 147 9 273 56 427 160 76 51
261 186 270 197 14 18 369 275 455 330 214 138 444 238 643 280 92 20 322 27
322 11z m-2199 -166 c18 -12 38 -75 68 -214 43 -202 73 -251 206 -337 41 -27
75 -52 75 -56 0 -14 -94 4 -146 27 -104 46 -171 143 -219 316 -14 52 -34 114
-43 139 -17 47 -86 130 -107 130 -7 0 -18 6 -24 13 -9 12 5 12 85 1 52 -8 99
-16 105 -19z m2487 -71 c34 -4 59 -11 56 -15 -3 -5 -13 -9 -23 -9 -31 0 -211
-56 -306 -95 -185 -75 -396 -199 -687 -403 -84 -59 -227 -160 -318 -224 -453
-318 -693 -421 -948 -405 -97 6 -132 15 -110 28 7 5 24 9 37 9 50 0 159 33
249 75 120 57 209 117 553 375 453 340 635 453 889 553 224 89 440 128 608
111z m3029 -14 c46 -28 71 -84 83 -189 13 -112 -1 -245 -30 -307 -51 -104
-216 -111 -264 -10 -53 112 -48 383 9 470 36 55 141 73 202 36z m2117 5 c67
-32 103 -161 93 -330 -10 -163 -49 -235 -132 -251 -83 -15 -152 24 -180 104
-36 105 -28 346 13 417 41 68 132 95 206 60z m-4029 -21 c81 -42 113 -179 62
-269 -27 -49 -93 -85 -154 -85 -48 0 -44 12 -46 -120 l-2 -75 -40 0 -40 0 -3
275 c-1 151 0 281 3 289 8 22 170 11 220 -15z m215 -224 l0 -250 85 0 85 0 1
-32 c1 -49 12 -15 43 122 14 63 41 180 59 260 l34 145 46 3 c41 3 48 0 56 -20
21 -56 127 -549 119 -554 -5 -3 -24 -3 -42 0 -29 6 -33 11 -46 64 l-15 57 -72
3 -71 3 -14 -63 -13 -63 -165 0 -165 0 -3 275 c-1 151 0 280 3 287 2 7 20 13
40 13 l35 0 0 -250z m828 213 c4 -36 3 -37 -80 -34 l-48 2 0 -249 c0 -271 2
-262 -56 -262 l-24 0 -2 253 -3 252 -45 1 c-82 2 -80 1 -80 39 l0 35 168 -2
167 -3 3 -32z m176 28 c8 -13 126 -532 126 -554 0 -15 -7 -18 -37 -15 -36 3
-38 5 -49 54 -6 28 -14 57 -18 63 -4 6 -36 11 -76 11 l-68 0 -14 -62 -13 -63
-38 -2 c-22 0 -37 4 -37 10 0 11 117 528 125 555 5 14 91 17 99 3z m426 -28
l0 -38 -82 0 -83 0 -3 -87 -3 -87 63 -3 c63 -3 63 -3 63 -33 0 -30 0 -30 -62
-33 l-62 -3 -3 -127 -3 -127 -25 -1 c-52 -1 -50 -11 -50 292 l0 284 125 0 125
0 0 -37z m606 26 c57 -15 99 -54 113 -106 15 -57 4 -100 -38 -142 l-37 -37 28
-22 c31 -26 36 -47 41 -174 l3 -88 -26 0 c-49 0 -58 17 -62 118 -3 84 -5 96
-27 113 -14 11 -39 19 -62 19 l-39 0 0 -126 0 -125 -37 3 -38 3 -3 288 -2 287
70 0 c39 0 91 -5 116 -11z m350 -198 c49 -188 64 -235 64 -201 0 7 23 103 51
212 l52 198 53 0 54 0 0 -290 0 -291 -37 4 -38 4 -3 214 -4 214 -52 -200 c-60
-232 -61 -235 -78 -235 -30 1 -40 25 -89 215 -29 110 -55 203 -59 208 -3 4 -6
-88 -6 -205 l1 -212 -37 -1 -38 -2 0 289 0 289 57 -3 56 -3 53 -204z m548 192
c7 -24 126 -546 126 -555 0 -4 -18 -6 -40 -5 l-39 2 -13 60 -13 60 -75 0 -75
0 -13 -62 -13 -62 -37 3 c-26 2 -36 7 -35 17 6 38 124 542 128 550 4 5 26 9
50 9 33 0 45 -4 49 -17z m514 -7 c51 -27 76 -72 80 -147 2 -37 -1 -83 -7 -101
-21 -65 -90 -108 -172 -108 l-38 0 -3 -97 -3 -98 -37 -3 -38 -3 0 292 0 292
94 -6 c55 -3 106 -12 124 -21z m751 -1 c75 -44 100 -128 62 -203 -12 -23 -25
-42 -29 -42 -4 0 -14 -4 -22 -10 -12 -7 -10 -12 12 -30 30 -23 39 -53 43 -153
2 -40 5 -81 7 -92 3 -17 -2 -20 -36 -19 -21 1 -42 8 -47 15 -5 8 -9 53 -9 101
0 65 -4 90 -16 102 -19 19 -53 29 -85 24 -24 -3 -24 -5 -25 -123 -1 -120 -1
-120 -25 -122 -58 -4 -56 -18 -54 290 1 155 3 284 4 286 0 2 43 2 94 -1 69 -3
102 -9 126 -23z m349 -227 l2 -248 80 0 80 0 0 -34 c0 -43 -6 -45 -135 -43
l-100 2 -3 288 -2 288 37 -3 38 -3 3 -247z m406 240 c3 -7 32 -134 65 -282 65
-284 65 -285 14 -286 -27 0 -35 12 -48 75 l-10 50 -75 0 -75 0 -11 -51 c-6
-28 -14 -57 -18 -63 -8 -12 -62 -15 -69 -3 -5 8 116 542 127 560 10 16 95 16
100 0z m-9655 -152 c-14 -29 -76 -56 -254 -107 -140 -41 -184 -60 -227 -98
-47 -41 -53 -39 -29 8 39 76 139 134 336 195 66 21 131 41 145 45 32 10 44 -8
29 -43z m41 -94 c18 -15 20 -20 9 -29 -21 -17 -255 -135 -339 -172 -71 -31
-187 -55 -165 -34 39 36 285 190 350 218 91 40 114 42 145 17z m3586 -3 c70
-13 94 -29 42 -29 -52 0 -224 -36 -315 -66 -185 -62 -410 -180 -631 -332 -53
-36 -209 -149 -347 -250 -300 -221 -436 -312 -575 -386 -197 -103 -353 -140
-524 -122 -68 8 -92 26 -33 26 56 0 177 39 271 88 94 48 277 181 506 368 545
444 849 617 1215 693 104 22 299 27 391 10z m-3469 -99 c70 -31 158 -96 200
-147 85 -102 131 -207 198 -449 56 -202 86 -288 138 -389 57 -110 141 -220
249 -325 50 -50 88 -90 83 -90 -21 0 -185 120 -261 193 -161 152 -258 305
-337 527 -65 181 -124 329 -153 378 -53 90 -182 158 -336 177 -32 3 -58 10
-58 13 0 11 203 132 220 132 8 0 34 -9 57 -20z m3656 -222 c66 -10 84 -28 27
-28 -59 0 -246 -42 -350 -79 -225 -81 -481 -232 -840 -496 -404 -297 -485
-353 -645 -442 -190 -106 -337 -148 -490 -140 -140 7 -159 17 -60 34 195 32
298 95 745 453 545 437 815 596 1150 677 167 40 299 46 463 21z m-3696 -73
c68 -58 80 -86 87 -210 20 -350 188 -676 462 -896 208 -166 451 -255 724 -266
287 -10 537 63 770 228 102 72 236 210 305 314 50 75 73 98 169 170 61 46 112
80 114 75 2 -5 -12 -46 -31 -90 -188 -434 -570 -740 -1032 -826 -130 -25 -361
-25 -493 0 -624 115 -1091 635 -1137 1268 -8 101 1 268 14 268 4 0 26 -16 48
-35z m4333 -415 l0 -360 125 0 125 0 0 -80 0 -80 -210 0 -210 0 0 440 0 440
85 0 85 0 0 -360z m485 -80 l0 -435 -87 -3 -88 -3 0 441 0 441 88 -3 87 -3 0
-435z m439 426 c72 -22 122 -61 151 -119 46 -93 28 -187 -49 -255 -40 -35 -43
-42 -21 -42 25 0 101 -83 115 -124 7 -21 10 -68 8 -106 -5 -90 -42 -153 -113
-189 -47 -25 -59 -26 -237 -29 l-188 -4 0 441 0 441 143 0 c96 0 160 -5 191
-14z m696 -66 l0 -80 -120 0 -120 0 0 -100 0 -100 80 0 80 0 0 -65 0 -65 -80
0 -80 0 0 -115 0 -115 120 0 120 0 0 -80 0 -80 -210 0 -210 0 0 440 0 440 210
0 210 0 0 -80z m428 64 c138 -45 209 -196 152 -322 -20 -44 -75 -102 -97 -102
-22 0 -14 -14 20 -35 54 -33 66 -73 70 -228 3 -84 9 -143 16 -150 22 -22 9
-27 -78 -27 -61 0 -92 4 -98 13 -4 6 -10 74 -13 150 -5 128 -7 140 -27 157
-23 18 -97 35 -114 25 -5 -4 -9 -81 -9 -176 l0 -169 -85 0 -85 0 0 440 0 440
149 0 c110 0 162 -4 199 -16z m777 -64 l0 -75 -97 -3 -98 -3 0 -359 0 -360
-85 0 -85 0 0 360 0 360 -95 0 -95 0 0 80 0 80 278 -2 277 -3 0 -75z m349 63
c3 -10 30 -137 61 -283 31 -146 71 -336 89 -422 l34 -158 -88 0 -89 0 -11 58
c-20 100 -10 92 -115 92 -105 0 -95 8 -115 -92 l-11 -58 -84 0 c-74 0 -83 2
-79 18 9 36 184 855 184 858 0 2 49 4 109 4 96 0 110 -2 115 -17z m600 3 c142
-43 195 -177 183 -464 -6 -152 -19 -209 -69 -292 -26 -42 -45 -60 -87 -82 -52
-27 -57 -28 -217 -28 l-164 0 0 440 0 440 153 0 c104 0 169 -5 201 -14z m1556
-51 l0 -65 -649 0 -649 0 -12 31 c-7 17 -24 46 -36 65 l-23 34 684 0 685 0 0
-65z m0 -250 l0 -65 -630 0 -630 0 0 34 c0 18 -3 48 -6 65 l-6 31 636 0 636 0
0 -65z m0 -250 l0 -65 -636 0 -637 0 7 46 c3 26 6 55 6 65 0 18 22 19 630 19
l630 0 0 -65z m-2 -252 l3 -63 -690 0 -690 0 35 57 c19 31 34 60 34 65 0 4
294 7 653 6 l652 -3 3 -62z"/>
<path d="M9155 3186 c-39 -60 -44 -300 -8 -375 16 -32 22 -36 57 -36 31 0 43
6 60 28 19 26 21 41 21 185 0 132 -3 162 -18 190 -15 28 -23 32 -57 32 -31 0
-43 -5 -55 -24z"/>
<path d="M11300 3207 c-38 -19 -49 -67 -49 -215 -1 -133 11 -194 42 -214 27
-17 76 -8 93 17 32 50 36 326 5 384 -11 20 -41 41 -58 41 -4 0 -19 -6 -33 -13z"/>
<path d="M7239 3164 c0 -27 -1 -80 -1 -119 l0 -70 35 -3 c72 -6 125 80 97 162
-15 45 -40 67 -89 73 l-41 6 -1 -49z"/>
<path d="M7936 3129 c-22 -95 -46 -211 -46 -222 0 -13 92 -18 104 -6 6 6 -40
238 -48 247 -3 2 -7 -6 -10 -19z"/>
<path d="M8536 3135 c-12 -47 -46 -217 -46 -229 0 -13 97 -19 105 -6 4 7 -42
249 -50 258 -1 2 -6 -9 -9 -23z"/>
<path d="M9520 3110 l0 -102 43 7 c58 10 77 22 92 58 28 67 -11 126 -89 134
l-46 6 0 -103z"/>
<path d="M10438 3032 c-14 -70 -24 -130 -22 -134 5 -7 101 -5 108 3 5 5 -47
245 -54 253 -3 3 -17 -52 -32 -122z"/>
<path d="M10900 3090 l0 -120 30 0 c69 0 110 45 110 121 0 75 -43 119 -116
119 -24 0 -24 -1 -24 -120z"/>
<path d="M11647 3203 c-2 -5 -3 -48 -3 -98 l1 -90 39 2 c74 5 114 52 102 118
-5 26 -16 41 -39 55 -32 20 -92 27 -100 13z"/>
<path d="M12460 3037 c-14 -67 -25 -126 -25 -132 0 -10 78 -20 99 -12 11 4 8
32 -13 130 -14 69 -29 128 -32 131 -2 3 -16 -50 -29 -117z"/>
<path d="M8100 2311 l0 -111 26 0 c91 0 149 52 140 124 -7 58 -42 88 -110 94
l-56 4 0 -111z"/>
<path d="M8100 1955 l0 -115 49 0 c67 0 97 13 121 52 24 38 20 100 -8 132 -24
27 -75 46 -122 46 l-40 0 0 -115z"/>
<path d="M9210 2301 l0 -121 40 0 c82 0 130 45 130 122 0 38 -6 54 -28 79 -24
27 -37 33 -85 37 l-57 4 0 -121z"/>
<path d="M10391 2335 c-1 -5 -15 -82 -31 -170 -16 -88 -30 -166 -30 -172 0 -9
20 -13 65 -13 55 0 65 3 64 18 0 23 -66 350 -68 337z"/>
<path d="M10930 2131 l0 -291 40 0 c87 0 124 46 142 174 11 78 5 261 -12 317
-16 55 -51 82 -115 87 l-55 4 0 -291z"/>
</g>
</svg>
