<?xml version="1.0" standalone="no"?>
<!DOCTYPE svg PUBLIC "-//W3C//DTD SVG 20010904//EN"
 "http://www.w3.org/TR/2001/REC-SVG-20010904/DTD/svg10.dtd">
<svg version="1.0" xmlns="http://www.w3.org/2000/svg"
 width="400.000000pt" height="400.000000pt" viewBox="0 0 400.000000 400.000000"
 preserveAspectRatio="xMidYMid meet">

<g transform="translate(0.000000,400.000000) scale(0.100000,-0.100000)"
fill="#000000" stroke="none">
<path d="M0 2000 l0 -2000 2000 0 2000 0 0 2000 0 2000 -2000 0 -2000 0 0
-2000z m2157 1370 c141 -34 259 -92 377 -186 l59 -47 -48 -24 -48 -25 -41 31
c-178 134 -404 198 -608 173 -51 -6 -125 -21 -165 -33 -71 -22 -72 -22 -132
-3 -34 11 -61 22 -61 27 0 22 205 91 322 107 90 13 249 3 345 -20z m-756 -146
c46 -8 127 -29 179 -45 161 -50 252 -54 348 -14 19 9 37 14 39 12 8 -8 -73
-62 -126 -84 -71 -29 -110 -29 -229 2 -321 81 -610 38 -668 -101 -10 -25 -24
-36 -60 -48 -26 -8 -50 -14 -54 -11 -12 7 -1 74 19 120 63 144 300 217 552
169z m1659 -68 c0 -2 -30 -14 -67 -26 -164 -51 -364 -168 -633 -370 -233 -174
-392 -269 -509 -304 -75 -22 -212 -20 -270 3 l-45 18 75 5 c142 10 218 50 495
259 350 266 504 351 719 399 70 16 235 27 235 16z m-1523 -113 c25 -6 41 -48
69 -181 21 -100 51 -147 131 -199 60 -41 55 -52 -16 -33 -87 23 -141 96 -190
255 -29 95 -46 123 -96 161 -18 14 -16 15 30 9 28 -4 60 -9 72 -12z m1748 -63
c-3 -5 -14 -10 -24 -10 -22 0 -170 -50 -243 -83 -105 -47 -270 -150 -497 -310
-332 -235 -442 -301 -581 -348 -66 -23 -211 -35 -260 -22 l-35 10 60 12 c134
27 223 78 503 288 407 305 590 406 832 457 77 17 254 21 245 6z m-2335 -90 c0
-28 -30 -43 -165 -85 -66 -20 -137 -48 -157 -61 -40 -26 -44 -25 -28 6 20 37
104 83 219 121 64 21 119 38 124 38 4 1 7 -8 7 -19z m29 -84 c10 -11 -12 -26
-121 -79 -122 -60 -214 -95 -224 -84 -7 7 188 133 241 155 59 25 88 27 104 8z
m2492 -4 c20 -8 14 -11 -41 -17 -221 -25 -438 -135 -811 -410 -446 -329 -612
-409 -795 -380 l-49 8 72 18 c129 32 201 77 464 287 228 181 305 239 414 307
164 102 332 170 485 195 63 10 224 5 261 -8z m-2344 -103 c92 -64 141 -154
203 -374 67 -239 114 -326 249 -469 81 -85 80 -87 -14 -21 -82 58 -194 178
-243 261 -23 38 -69 143 -103 234 -76 203 -79 210 -129 253 -39 33 -96 55
-188 74 l-42 8 76 47 c76 46 76 46 112 31 20 -8 55 -28 79 -44z m2463 -117
c21 -8 15 -10 -39 -16 -156 -18 -365 -105 -561 -233 -58 -38 -183 -127 -279
-197 -236 -175 -332 -238 -442 -291 -117 -56 -223 -81 -304 -70 -63 7 -60 17
10 29 58 10 189 77 270 138 39 29 136 105 215 169 394 315 581 421 836 474 74
16 251 14 294 -3z m-2564 -40 c39 -33 52 -66 59 -151 37 -450 397 -791 840
-795 55 0 132 5 170 13 215 42 421 177 543 358 27 40 69 82 117 119 42 31 78
54 80 52 10 -9 -101 -215 -147 -275 -134 -172 -336 -300 -553 -349 -104 -23
-302 -23 -400 0 -419 98 -707 428 -750 859 -7 70 2 187 13 187 4 -1 16 -8 28
-18z m634 -1293 c98 -34 135 -94 135 -219 0 -69 -4 -93 -23 -127 -30 -57 -85
-92 -166 -106 l-66 -11 0 -108 0 -108 -65 0 -65 0 0 351 0 352 108 -6 c59 -3
123 -11 142 -18z m431 -6 c78 -35 119 -109 119 -213 0 -77 -24 -143 -66 -179
-35 -31 -117 -61 -166 -61 l-28 0 0 -110 0 -110 -65 0 -65 0 0 351 0 352 113
-5 c83 -4 125 -10 158 -25z m269 -263 l0 -290 100 0 100 0 0 -60 0 -60 -165 0
-165 0 0 343 c0 189 3 347 7 350 3 4 33 7 65 7 l58 0 0 -290z"/>
<path d="M1540 1031 l0 -121 25 0 c43 0 73 21 90 64 33 82 -2 160 -79 173
l-36 6 0 -122z"/>
<path d="M1950 1030 l0 -120 26 0 c77 0 119 76 94 170 -9 33 -18 44 -45 56
-74 30 -75 29 -75 -106z"/>
</g>
</svg>
